<svg width="152" height="152" viewBox="0 0 152 152" fill="none" xmlns="http://www.w3.org/2000/svg">
<rect width="152" height="152" fill="#EEEEEE"/>
<path d="M36.2443 95.8853C33.8578 92.4139 32.7167 88.2613 33.001 84.0826V67.0268C32.7 62.8175 33.8238 58.6283 36.1979 55.1105C38.3447 52.3968 42.0126 51.0475 47.2018 51.0626C52.391 51.0778 55.9046 52.2679 57.7424 54.633C59.9833 57.5638 61.0768 61.1876 60.8235 64.8437V68.8461H51.2327V64.5026C51.2198 63.3597 51.1191 62.2194 50.9316 61.0914C50.8156 60.2748 50.4337 59.517 49.8428 58.931C49.478 58.624 49.0545 58.3914 48.5971 58.2469C48.1396 58.1024 47.6574 58.0489 47.1787 58.0896C46.4911 57.9889 45.7886 58.0986 45.1669 58.4038C44.5451 58.709 44.0342 59.1948 43.7037 59.7952C43.0946 61.3922 42.8265 63.0952 42.9161 64.7982V86.4477C42.8104 88.162 43.12 89.8766 43.8196 91.4507C44.1538 92.0187 44.6498 92.4783 45.2466 92.7732C45.8433 93.0682 46.5149 93.1855 47.1787 93.1108C47.8309 93.2014 48.4957 93.0875 49.078 92.7853C49.6604 92.4831 50.1307 92.0081 50.4219 91.428C50.9823 89.828 51.226 88.1376 51.1401 86.4477V81.8995H60.7308V85.8337C61.0131 89.5438 60.0089 93.2385 57.8814 96.3173C55.8428 98.8189 52.3215 100.047 47.3177 100.047C42.3138 100.047 38.3987 98.6824 36.2443 95.8853Z" fill="#111111"/>
<path d="M73.5876 51.9531H84.7172L94.1094 98.8594H84.8581L83.191 88.4953H75.3956L73.5171 98.7924H64.125L73.5876 51.9531ZM82.1579 82.5985L79.1994 63.7467L76.2643 82.5985H82.1579Z" fill="#111111"/>
<path d="M100.459 59.0215H92.9219V51.9531H117.859V59.0215H110.415V98.8594H100.436L100.459 59.0215Z" fill="#111111"/>
</svg>
